<?xml version="1.0" encoding="utf-8"?>
<!-- Generator: Adobe Illustrator 24.1.1, SVG Export Plug-In . SVG Version: 6.00 Build 0)  -->
<svg version="1.1" id="Layer_1" xmlns="http://www.w3.org/2000/svg" xmlns:xlink="http://www.w3.org/1999/xlink" x="0px" y="0px"
	 viewBox="0 0 1324.2 1045.9" style="enable-background:new 0 0 1324.2 1045.9;" xml:space="preserve">
<style type="text/css">
	.st0{opacity:0.18;fill:#FCE04A;enable-background:new    ;}
	.st1{fill:#FCE04A;}
	.st2{fill:#231F20;}
	.st3{fill:#FFFFFF;}
</style>
<path class="st0" d="M25.9,349.7c14.4-5.6,28.9-15.3,43.4-16c83.6-4,167.3-8.8,250.9-7.7c105.4,1.4,210.7,8.7,316.1,12
	c17.7,0.5,63.6,2.8,71-24.1c19.3-69.8-59.9-89-90.7-123.6c24.4,6.3,48.8,11.4,73.1,19.3c51.1,16.6,101.5,41.3,149.1,92.6
	c7.9,8.5,15.7,19.1,22.6,31.8c11.7,21.5,11.3,44-0.4,64.8c-5.5,9.8-11.6,17.6-17.4,31.4c5.1,0.7,10.2,2.3,15.2,1.9
	c64.5-4.7,129-1.8,193,20.6c18.6,6.5,36.9,17.8,55.3,27.5c3.7,2,7.1,7,10.6,10.6c0,2.6-0.1,5.3-0.1,7.9c-6.5,2.4-12.9,5.8-19.4,7.1
	c-20.6,4.2-41.2,7.2-61.8,11.4c-5.7,1.2-11.6,3.4-17.1,7.6c-3,2.3-7.5,9.3-7.7,14.8c-0.2,6.8,2.9,17.2,5.6,20.6
	c7,8.8,14.5,18.2,22.1,20.9c34.4,12.2,68.9,21.3,103.3,33.1c32.6,11.2,65.3,21.2,97.4,38.5c13.9,7.5,27.5,28,39.3,49.3
	c15.8,28.4,15.7,67.3,1.9,101.5c-13.8,34.2-31.5,50.5-49.6,63.9c-34.7,25.6-70.4,34.4-106.4,31.3c-74.5-6.6-148.3,13.8-222.2,30.8
	C844.6,942.9,786.1,955,727.6,961c-25.7,2.7-51.8-9.4-77.6-18.2c-15.6-5.3-27.3-25.7-31-68.4c-2.7-30.3-12.8-47-23.9-53.5
	c-20.3-12-41.1-27-61.7-27.1c-46.7-0.4-93.3,8.2-140,11.7c-52.4,3.9-105.1,14.4-157-13.4c-14.5-7.8-29.3-22-41.8-41.7
	c-19.3-30.4-17.9-82.4,2.1-109.9c35.9-49.4,75.3-73.3,115.4-90.7c13.9-6,28.1-6.7,42.1-11.7c8.7-3.1,20.3-2.8,22.3-29.4
	c1.9-25.2-8.4-35.5-16-45.1c-30.2-38.3-63.2-53.2-96.4-58.8c-50.2-8.4-100.6-10.7-150.8-17.4c-24.9-3.3-49.8-10.3-74.6-16.5
	c-4.4-1.1-8.7-6.1-13-9.2C25.7,357.7,25.8,353.7,25.9,349.7z"/>
<g>
	<g>
		<g>
			<path class="st1" d="M738.1,672c-0.1-3.1-1.7-6.6-4.7-6.5c-0.8,0.1-5.4,0.4-5.3,0.8l0.5,17.1c0,0.4,0.6,0.4,0.7,0.4
				C734.8,683.7,738.2,676.8,738.1,672z"/>
			<path class="st1" d="M809,603.6c8.8-7,9.9-22.9,9.6-30.9c-0.1-0.8-0.1-3.1-0.1-3.4c-0.3-7.5-6.2-13-12.1-11.8
				c-0.1,5.4,1,13.3,1.3,18.5C808,584,807.9,595.7,809,603.6z"/>
			<path class="st1" d="M873.8,560.3c0,0,0,1.2,0.1,1.5c0.2,4.8,0.9,9.3,0.9,13.9l0.3,0.1c0.1,0,0.8,0.2,0.9,0.1
				c0.1,0,0.3-0.1,0.4,0c0.4-5.3,0.9-10.6,1.3-15.9c-1.2,0-2.3,0-3.5,0L873.8,560.3z"/>
			<path class="st1" d="M731,709.5c-0.1,0-0.4,0.2-0.5,0.3l0.7,17.5c0,0.4,0.6,0.4,0.9,0.3c9.8-0.2,10.7-7.5,10.6-10.3
				C742.7,714.6,742.2,708.3,731,709.5z"/>
			<path class="st1" d="M807.6,688.6c0.1-2.1,0.2-18.3-4.3-18.3c-0.2-0.4-0.3-0.5-0.6-0.4c-3,0.1-7.9,1.2-9.6,11.2
				c-0.4,2.1-0.5,8-0.6,8.1c0,0.4,0.2,4.5,0.2,5.9c0.1,0.8,0.2,4.9,0.2,5.9c0.2,15.8,2.8,22.4,6.3,22.8c0.1,0,0.4,0,0.5,0
				c1.5-0.1,3.5-2.8,3.8-3.6c3.2-8.3,4.3-22.6,3.9-31.4C807.7,688.9,807.6,688.8,807.6,688.6z"/>
			<path class="st1" d="M861.5,808.9c-4.1-1.1-8.2-1.9-12.3-2.9c3.8-21,7-42.1,9.9-63.3c-1.1,0.7-2.2,1.1-3.4,1.2
				c-5.3,0.2-11.2-0.5-16.4-1c-2.3-0.5-2-1.2-3.6-2.6c-0.7-0.9-2.2-0.8-2.3-2.3l-0.1-0.3c4.4-4.2,20.4-33.1,21.5-36l-32.3-48.2v-0.4
				c0-0.5-0.1-0.8,0.7-1.1c0.3-0.1,2-0.1,2.5-0.1c7.4-0.3,16.8-1.2,23.2-1.4c4.4,0.2,4.7,4,6.9,6.6l11.4,16.2
				c1.5-14.4,2.9-28.6,4.1-42.9l-6.2,0.4c-1.2,0.5-3.2,0.5-4,0.4c-0.5,0-2.6-0.1-3.1-0.1c-0.7,0-1.5-0.6-1.8-1.4
				c-1.1-16.1-6.5-68.1-6.4-89.4c-0.3-0.5-0.3-0.9-0.4-1.3c-0.2-3.8,19.1-5.3,30.2-6.1c0.6-6.6,1.3-13.3,1.8-20
				c-1.2,0-8.1,0.5-10.4,0.6c-1.8,0.1-6.5,0.1-6.8,0l-0.8-0.2c0-17.3,3.6-42.6-10.9-54.3c-2-1.7-5.1-3.8-7.6-3.7
				c0,0-1.3-0.3-1.4,0.2c0.1,2,0,11.3,0.1,13.3c0,0.1,0,1.6,0.1,2c0.1,2.6,0.8,5.2,0.9,7.8c0.3,8.6-0.2,16.8,0.3,25.6
				c-0.9,9.4-12.2,12.4-20.4,12.6c-1.2,0-4.4,0.2-4.8,0.2c-0.8,0.1-3.6-0.3-4-0.4c-0.1,0-2.3-0.7-2.8-0.9c-0.1,0-0.5-0.4-0.5-0.4
				c-0.2-0.2-0.5-0.8-0.5-0.8L805.1,381c0-2.2,15.6-4.1,17-4.4c0.1,0,3-0.1,3.8-0.2c1,0,3.4-0.1,3.5-0.1c0.4,0,4.2,0.6,4.6,0.7
				c5.4,0.6,5.7,1.2,6,5.9c0,0.4,0.1,0.8,0,1.2v0.1c0,1.2-0.3,2.2-0.2,3.3c0.2,5.6,1.1,11.5,1.4,16.9c0.1,3.5,0.7,20,0.9,23.6
				l0.6,3.8c0.2,0.4,0.8,0.2,1.1,0.1c4-0.1,10.6-9.2,12.2-12.4c4.7-8.9,8.4-20.6,8-30.8c-0.1-3.5-1.1-7.3-1.2-10.8
				c0.1-0.3-0.2-1.4,0.3-1.4l33.1-1.2c0.7,0,1.2,0.1,1.6,0.6c0.6-3.6,1.1-7.3,1.7-11.1c1.5,0.1,3.1,0.2,4.5,0.3
				c3.6,0.2,4.1-4.6,0.6-5.4c-1.4-0.3-2.8-0.5-4.3-0.9c0.5-2.7,0.9-5.5,1.4-8.2c0.2-1.3-2-1.8-2.3-0.5c-0.8,2.7-1.3,5.4-1.9,8.1
				c-57.9-12.8-118.1-17.3-177-23.6c-59.8-6.3-120.7-11.5-181.1-11.6c0.1-1.6,0.2-3.2,0.3-4.7c0-1.9-2.5-2.1-2.8-0.3
				c-0.3,1.7-0.5,3.4-0.9,5c-3.3,0-6.5,0-9.7,0c-1.5,0.1-2.4,2.3-0.6,2.7c3.2,0.9,6.4,1.6,9.6,2.3c-3.8,21.8-7.2,43.7-10.3,65.6
				c6.2-0.1,13.3-0.2,21.6-0.4c1.8,0.6,3.3,3.1,3.3,4.8c0.3,7.9,0.4,18.2-0.5,26c-3.6,4.3-13.2,2.7-18.7,3.8c-0.4,0-1.3,0.5-1.3,0.5
				c0,0.5-0.4,2.6-0.3,3.2v0.1c0.6,17.4,3.5,60,6.3,83.2c0,1-0.9,4.8-1.5,5.9c-4.2,5.8-11.1,6-17.8,6.2c-0.5,0-1.2,0-1.8,0.1
				c-2.2,0-4.3,0.1-6.1-0.4c-0.5,4.3-1.1,8.7-1.6,12.9c-0.2,2.1-0.6,4.1-0.8,6.2c2.8-0.5,5.7-0.8,8.6-0.9c0.1,0,2.2,0.3,2.4,0.2
				c0,0,0,0,0.1,0c22.1,2,33.1,37,19.4,81.1c-0.9,1.7-1.7,3.4-2.8,5c-6.1,6.8-14.3,10.1-23.7,10.5c-5.4,0.2-10.8-0.8-15.4-3.3
				c-0.8,7-1.6,13.8-2.4,20.8c7.4-0.8,18.6-1.4,43.9-1.8c1.2,0.4,2.4,2.2,2.4,3.5c0.3,5.7,0.4,13.3-0.3,19
				c-2.6,3.2-9.6,1.9-13.6,2.8c-0.3,0.1-1,0.3-1,0.3c0,0.4-0.2,1.9-0.2,2.4v0.1c0.5,12.7,2.6,43.7,4.7,60.7c0,0.7-0.6,3.5-1.1,4.2
				c-3,4.1-8,4.3-13,4.5c-0.4,0-0.8,0.1-1.4,0.1c-4.6,0.1-8.5-0.1-8.7-5.9l-0.4-9.8l-1.9-33.5c-0.7-2.7-2-22.4-3.5-22.8
				c-0.1-0.2-1.3-0.3-1.7-0.3c-0.7,0-4,0.1-6.7,0.4c-2.7,26.8-5,53.7-6.1,80.5c-3.5-0.6-7.2-1.2-10.5-1.8c-1.8-0.4-2.1,2.5-0.3,2.8
				c3.6,0.8,7.1,1.4,10.7,2.1c0,1.3-0.2,2.6-0.3,4c0,1.9,2.6,2.1,2.8,0.3c0.1-1.2,0.3-2.4,0.6-3.6c117.9,23.9,239.4,23.9,358,42.3
				c-0.3,2.8-0.5,5.6-0.9,8.4c-0.2,2.1,2.9,2.5,3.3,0.4c0.5-2.7,1-5.4,1.5-8.1c4,0.7,8.1,1.2,12.1,1.9
				C862.6,812.7,863.4,809.4,861.5,808.9z M705.2,388c0.1,0,1.6,0,1.8-0.1c0.4,0,1.6,0,1.6,0c3.4,0.3,18.3,0.7,21.5,1
				c5.2,0.8,5.8,7.9,9,11.2l12.3,25.7c1.3,1.4,1.1,1.7,1.9,3.3c0.7,1.1,5.2,10.7,6,11.7c2.2,4.4,3.7,9.4,6.6,13.1
				c0-0.5-0.2-3.8-0.2-4.5c-0.4-8.7-1.9-17.2-2.1-25.9c0-0.5-0.1-2.3-0.1-2.6c0.2-10.1-0.3-20.5-0.3-30.6c0.3-1.4,1.9-2.4,3.2-2.7
				c1.4-0.2,6.5-1.2,7.3-1.2c0.1,0,6-0.2,7.9-0.3c2-0.1,11.5-0.2,10.9,1.8c0.1,4.2-0.2,8.1,0,12c0.1,1.8,0,4.6,0.7,6.4l0.6,16.9
				c0.2,0.4,0.4,2.1,0.5,2.5c0,0.1-0.3,1.8-0.3,1.9s0.4,1.6,0.5,1.7v0.1v0.1c0,0.4-0.3,1.8-0.3,2.2l0.4,11c-0.4,1.2-0.4,2.2-0.3,3.4
				c0.6,16.9,3.4,33.4,4,49.8c0.1,1.4,0.1,8.5,0.2,9.9c-0.1,4.3-3.4,8.2-7.6,8.9c-0.5,0-0.7,0.2-1.4,0.2c-7.1,1.4-15,2.9-22.4,3.2
				c-2.2,0-3.4-1.6-4.1-3.7c-0.6-0.9-2.6-6-3.3-7.3c-2.1-4.7-13.6-26.5-16-31.2c-0.3-0.6-2.8-6.1-3-6.8c-0.4-0.6-1.3-2.3-1.5-2.4
				h-0.4l0.7,21c0.7,2.2,0.5,3.5,0.6,5.5c0.1,4-0.1,7.9,0,11.9c0.1,1.4,0.5,2.8,0.6,4.3c0.2,6.5-5.9,8.7-11,8.9l-16.6,0.7
				c-1.4,0.1-4-0.8-4.1-2.9l-4.9-125.8C704.1,390.3,704.2,388.7,705.2,388z M749.9,624c-0.1-1.4-0.6-8.8-0.6-8.9
				c0-0.5-0.3-4.8-0.4-5.4c-0.1-0.3,0.1-3.1,0-3.5c0-0.1-0.1-0.3-0.1-0.3c0-0.4-0.3-3.3-0.3-3.7c-0.1-1.9-0.2-10.6-0.3-12.6
				l-1.4-48.7c-0.1-0.3-0.3-1.4-0.4-1.7c0,0,0-0.1-0.1-0.3c-0.1-2.6,4.8-2.6,6.7-3.6l9-0.3c0.1,0,3.1,0.6,4.3,0.7
				c0.9,0.2,1.5,0.9,2.4,1.2c2.1,0.2,2,0.5,2.1,2.4c0,0.1,0.1,0.3,0,0.4c0.2,7.1,0.2,14.1-0.1,20.9c0.9,21.2,2.2,46.5,1.9,67.3
				c-1.7,2.4-6.5,4.5-9.3,5c-4.2,0.2-6.5,0.6-10.2,0.8c-1.8,0.1-3.3-1.3-3.5-3c0-0.5,0.1-0.9,0.3-1.7
				C750.1,628.3,749.9,625,749.9,624z M668.1,387.2l12.3-0.5c0.1,0,4.3,0.9,5.8,1c1.1,0.4,2,1.3,3.2,1.7c2.8,0.3,2.8,0.7,2.9,3.2
				c0,0.1,0,0.4,0,0.5c0.4,9.7,0.3,19.3-0.2,28.6c1.2,28.9,3.1,63.4,2.5,91.9c-2.3,3.2-8.9,6.3-12.7,6.9c-5.7,0.3-8.9,0.9-13.9,1
				c-2.3,0.1-4.6-1.8-4.7-4c-0.1-0.8,0.1-1.2,0.3-2.4c0-1-0.2-5.6-0.3-6.7c-0.1-1.8-0.8-12.1-0.9-12.2c-0.1-0.8-0.5-6.6-0.4-7.3
				c0-0.4,0-4.2,0-4.7c0.1-0.3,0-0.4,0-0.4c0-0.5-0.4-4.6-0.4-5.1c-0.1-2.6-0.3-14.5-0.4-17.2l-2.1-66.5c0-0.4-0.5-2-0.5-2.4
				c0,0,0-0.1,0-0.4C658.7,388.5,665.5,388.5,668.1,387.2z M661.4,567.4L661.4,567.4c0.5,12.9,2.5,44.1,4.6,61
				c0,0.7-0.6,3.5-1.2,4.3c-3,4.1-8.2,4.4-13.1,4.6c-0.4,0-0.8,0.1-1.4,0.1c-4.6,0.1-8.6-0.1-8.7-6l-0.4-9.8l-2-33.8
				c-0.7-2.7-2-22.5-3.6-23c-0.1-0.2-1.3-0.2-1.7-0.3c-1.2-0.1-9.2,0.7-10.6,0.7c-0.9-0.2-2-0.6-2.1-2c0.6-4.7-1-11.8-1-17.3
				c-0.1-0.3,0-0.4,0-0.7c-0.3-0.6-0.3-0.9-0.4-1.3c0-1.2,3-1.9,4.1-2c7.8-1.4,16.9-2.2,50.1-2.7c1.2,0.4,2.4,2.2,2.4,3.5
				c0.2,5.9,0.4,13.3-0.3,19.1c-2.6,3.2-9.6,1.9-13.8,2.8c-0.3,0.1-1,0.3-1,0.3C661.6,565.4,661.4,566.9,661.4,567.4z M558.4,401
				c0,0,0-1-0.1-1.4c0-2.2,0.1-3.3,0.2-6.2c1.6-2.1,5.8-2.8,8.4-2.9c0.1,0,1.2,0,1.4-0.1c1,0,8.4,0,9.3-0.1c0.1,0,1.9-0.2,2.4-0.3
				c0,0,1.6-0.3,2.2-0.3c3.5-0.1,7.6-0.1,11,0.4c0.8,0.6,1.5,1.7,1.8,2.5c0,0.4,0.1,3.4,0.2,3.8l2.1,57.2c0,0.1,0.2,0.3,0.2,0.3
				l17.2-0.7l0.4-0.5l0.2-50.3c0-1-0.5-1.7-0.5-2.8c-0.1-3.1,1.2-2.4,2.6-4.2c1-0.8,2.8-4.3,4.6-4.6c0.5,0,3-0.1,3.4-0.1
				c1,0,3.4-0.1,3.5-0.1c5.2,0.3,10.8-0.4,16.1,1.2c1.9,1.1,2.1,3.7,2.2,5.6c0.1,1.4,0,2.2-0.5,3.4c0.1,2.3,3.4,95.6,3.1,93.5
				c0.1,3.1,0.7,16.6,0.8,19.6c-0.1,1.6-1.9,2.4-3.1,3.3c-0.9,0.5-4,2.2-4.8,2.5c-1.7,0.4-10.5,2.1-12.2,2.4c-0.1,0-2.7,0.2-3.5,0.1
				c-1.8,0.1-9.3,0.4-9.4-3.5l-1.3-34.5c0-0.4-1.3-1-1.3-1c-2.1-0.1-12.1-0.2-14.5-0.3l-0.8,0.1c-2.3,0.1-1.7,4.2-1.7,5.7
				c0.1,2.3-0.1,15.1,0.1,18.4c-0.2,1.4,0.2,5.6-0.4,7.2c-2.9,8.6-12.4,9-20.3,9.2c-3.8,0.2-7.3,0.7-9.8-2.5
				C566.8,510.3,562.3,451.8,558.4,401z M550.7,567.1c-0.2-6.4-0.4-13.1,0.1-19.4c0.4-2.7,5.4-2.2,7.2-2.4c0.4-0.2,3.5-0.5,4-0.5
				c0.1,0,2.7-0.2,3.8-0.2c2.9-0.1,8.1-1.1,9.7,2.6c0,0.1,0.1,2.5,0.1,3c0.2,4.9-0.1,9.7,0.1,14.6c0.3,7.8,1.2,15.5,1.2,23.3
				c0.2,0.3,0.5,1.3,0.5,1.5c0.2,0.4,0.5,4.2,0.7,4.6c0.4,3.1,2.2,6.6,2,9.8c0.3,1,1.9,5.5,2.2,6.5c0.8,1.6,2,2.5,3.3,3.6
				c1,0.2,1.9,0.5,2.7,0.5c1.8-0.1,2.1-1.7,2.4-3.1c0.3-0.6,0.7-3.6,0.9-4.4c0-0.7-0.2-5.3-0.2-6.1c-0.1-1.8-0.2-6.1-0.2-6.4
				c-0.2-1-1.9-11.8-3-38.3c-0.1-3.4-0.2-6.9,0.2-10.4c0.3-0.3,0.7-0.6,1-0.7c0.5,0,3.1-0.1,3.8-0.2c1,0,3.8-0.2,4.1-0.1
				c2-0.1,12.3-0.2,14.5-0.1c0.6,0.4,0.9,1.3,1,2c0.9,5.9,1.5,12,1.6,18.2c-0.1-3.5,5,47.1-6,61.7c-0.2,0.1-0.6,1.3-0.6,1.5
				c0.1,0.3-0.2,0.5-0.2,0.5l-5.6,6c-0.2,0.1-0.8,0.6-1.1,0.7c-4.6,1.7-9,2.5-13.6,2.7c-13.1,0.4-20.2-2.4-27-13.2
				c-1-1.6-0.8-3-1.4-4.8c0-0.1-0.5-1.2-0.5-1.2c-1.1-2.3-1.3-4.8-1.7-6.9c-0.6-4.7-1.8-9.5-2.3-14.3c-0.5-6.5-1.4-13-2.1-19.5
				C551.6,574.5,550.8,570.9,550.7,567.1z M609.4,748.2c-0.8,0.4-2.9,1.6-3.5,1.9c-1.3,0.4-7.5,1.6-8.9,1.8c-0.1,0-2,0.1-2.6,0.1
				c-1.4,0.1-6.8,0.3-6.9-2.4l-0.9-25.1c-0.1-0.3-0.9-0.8-0.9-0.8c-1.6-0.1-8.8-0.1-10.5-0.2h-0.5c-1.8,0.1-1.1,3.1-1.3,4.2
				c0,1.8,0,10.9,0.1,13.4c-0.1,1.1,0.1,4.1-0.3,5.2c-2,6.3-9,6.5-14.8,6.7c-2.7,0.2-5.4,0.5-7.1-1.8c-0.5-8.3-3.8-50.9-6.6-87.9
				c0,0,0-0.7,0-1c0-1.6,0-2.4,0.1-4.4c1.2-1.5,4.2-2,6.2-2.1c0.1,0,0.8-0.1,1,0c0.7,0,6.1,0,6.8-0.1c0.1,0,1.4-0.2,1.7-0.3
				c0,0,1.1-0.1,1.5-0.2c2.6-0.1,5.5,0,7.9,0.3c0.6,0.4,1.1,1.2,1.3,1.8c0.1,0.3,0.1,2.5,0.2,2.7l1.5,41.7c0,0.1,0.2,0.3,0.2,0.3
				l12.5-0.4l0.3-0.3l0.2-36.7c0-0.7-0.4-1.3-0.3-2c-0.1-2.3,1-1.8,1.9-3.1c0.7-0.6,2.1-3.2,3.3-3.3c0.4,0,2.2,0,2.5-0.1
				c0.7,0,2.5-0.1,2.6-0.1c3.7,0.2,7.8-0.3,11.7,0.9c1.3,0.8,1.5,2.7,1.6,4.2c0,1,0,1.6-0.3,2.5c0,1.8,2.5,69.8,2.2,68.1
				c0.1,2.3,0.5,12.1,0.5,14.3C611.4,747,610.2,747.6,609.4,748.2z M674.3,748.9l-41.1,3.1c-1.2,0.5-3.2,0.5-4,0.4
				c-0.5,0-2.6-0.1-3.1-0.1c-0.7,0-1.5-0.6-1.8-1.4c-1.1-16.1-6.5-67.9-6.4-88.9c-0.3-0.5-0.3-0.9-0.4-1.3
				c-0.2-5.3,38.6-6.2,37.8-6.6c3.8-0.2,11.7-0.5,11.9,5.1c0,1-0.2,1.9-0.3,2.8c0.1,2.6,1.2,5.3,1.3,8c0.1,3.1-1.3,5.4-2.9,7.8
				c-0.8,1.3-2.2,1.5-3.4,1.8h-0.1c-6.6,1.7-13.3,2.1-20.1,2l-0.5,0.3c0,0,0,1.1,0.1,1.5c0.2,4.8,0.9,9.3,0.9,13.9l0.3,0.1
				c0.1,0,0.8,0.2,0.9,0.1c2.6-0.1,5.3-1.2,7.9-1.2c2.9-0.1,5,0.9,5.9,3.7c0.1,1.1,0.7,6,0.9,7.1c0,0.1,0.2,2.5,0.3,3.3
				c0,0.5,0,2.8,0,3.4c-0.5,3.1-1.4,4.9-4.8,5.4c-1.4,0.1-7.8,0.6-8.9,0.6l-0.5,0.5c0.1,0.8,0.3,7.4,0.4,8.2l27.4-1.7
				c0.7,0,1.3,1.3,1.5,1.8C674.4,733.4,676.6,744.7,674.3,748.9z M685.2,603.4c0,0,0-0.7,0-1c0-0.1-0.1-0.8-0.1-0.8l0.3-0.3h20.5
				c0.3-0.1,0.9-0.2,0.9,0.1c0.1,0.3,0,0.7,0,1.2c0.3,4.3-1.9,13.9,8.1,12c2.8-0.4,3.8-4.6,3.6-6.8c-0.3-6.8-8.3-10.5-13.6-13.8
				c-0.3-0.3-0.5-0.4-0.8-0.7c-10.1-6.4-19.9-13-20.4-25.6c0-0.1,0.2-0.6,0.2-0.6c0.7-0.8,0.5-1,0-1.6c-0.2-0.3-0.6-2.6-0.5-2.8
				c0-0.1-0.4-0.8-0.4-0.8s0-0.4,0-0.5c-0.6-16.8,16.2-24.4,31.9-25.1c28-1.2,27.9,25,26.2,38.9c0.1,0.3-1.9,0.1-2.3,0.1
				c-0.5,0-2.2,0-2.2,0c-3,0-12.3,0.5-15,0.2c-1.4,0.1-1.4-1-1.5-1.7c0-0.1,0-0.1-0.1-0.3c0-1.2-0.2-6.4-0.3-7.6
				c-0.2-3.2-2.3-7.8-6.8-7.7c-10.9,0.4-1.7,15.8,4.2,19.5c1.2,0.7,2.4,1.4,3.4,2c14,8.3,29.1,17.6,17.2,40.1
				c-1.7,3.1-3,5.8-5.8,8.4c-5.2,4.7-11.9,6.2-19.1,6.5C694.4,635.3,687.5,627.8,685.2,603.4z M759.2,731.9c-0.3,0.6-2.6,4.2-3,4.7
				c-0.1,0.3-0.9,2.5-1,2.6c-0.2,0.1-1.7,1.6-1.8,2c-0.2,0.1-0.6,1.2-0.6,1.2c-0.1,0-0.9,0.6-1.3,0.8c-1.6,1-3.5,2.3-5.3,2.9
				c-5.1,2-8.7,2.9-14.1,3.1c-5.6,0.2-11.3-0.4-16.7-0.7c-2.8,0-6.2-0.8-6.2-4.2c-0.1-0.8,0.4-1.7,0.4-2.3c0-0.1-0.1-0.3-0.1-0.3
				c-0.7-3.1-0.9-5.9-1.1-9.2c-0.3-7.2-0.2-14.6-0.5-21.7c0-0.4,0-1.1,0-1.1c-0.1-0.3-0.8-3.6-0.7-4.1c-0.2-1.4-0.5-8-0.6-9.3
				c0-0.1-0.4-1.3-0.3-1.6v-0.1c0-0.1,0-0.4,0-0.4c0-0.1,0.3-1.3,0.2-1.6v-0.1c-0.1-4.6-0.3-12.4-1.5-17c0-0.7-0.2-4.4-0.1-5.2
				c0-1.1-0.2-4.9-0.3-5.2c0-1.6,0.1-8.8,0.3-10.2c-0.2-2.5,3.9-4.9,6-4.9l25.7-0.9c0.3-0.1,2,0.2,2.5,0.3c7.2,1.2,14,2.4,18.1,8.4
				c2.3,3.3,3.4,6.3,3.5,10.3c0,0.4,0,1.6,0,1.6c-0.2,0.1-0.7,2.3-0.6,2.4c-0.3,3.2-0.1,5.4-1.9,8.1c-0.1,0-1.1,1.1-1.2,1.2
				c0.1,0.3,0.2,2.2,0.1,2.5c0,0.1-0.1,0.4-0.3,0.7c-2.6,4.7-6.1,7.1-10,10.3c-0.2,0.1-0.5,0.5-0.5,0.5c-0.3,1.2,5.9,3.6,7.4,4.9
				c4.5,3.8,8.7,9.1,9,15.2C762.9,719.6,761.4,728.2,759.2,731.9z M780.8,556.6c-0.3-4.8-0.9-9.7-1.1-14.6c-0.1-0.3-0.1-2.5-0.1-2.9
				c-0.1-2,4.2-1.6,5-1.8c0.3-0.1,2.9-0.8,4.1-1.2c0.1,0,0.7-0.2,0.9-0.2c3.3-0.4,5.4-0.6,8.2-0.8c14.3-0.5,31.1,2.5,38.9,15.4
				c3.8,6.7,5.5,15.7,5.7,23.2c0.1,0.8,0.1,3.1,0.1,3.1c-0.2,2-1.1,11.1-1.6,13c-0.6,2.7-1.5,6.3-1.8,8.9c0,0.1-0.2,1.9-0.4,2.2
				c-0.1,0.3-2,2-2.1,2.2c-1.5,1.9-0.9,3-1.7,5c-0.2,0.1-1.2,1.2-1.4,1.5c0,0.1,0.2,1.5,0.1,1.8c0.1,0.3-1.3,1.3-1.3,1.7
				c-1.6,3.3-4.2,5.8-6.8,8.1c-7.5,7.3-21.2,10.4-31.7,10.7c-1.9,0.1-8.5-0.5-8.6-3.8c0-0.1,0-0.5,0-0.5c0-0.4,0.2-4.7,0.1-5.1
				c0,0,0-0.1-0.1-0.3c-0.3-7.9-0.9-13.3-1.1-21.2c-0.5-0.8-0.5-1.7-0.6-2.7c-0.1-2.3,0.3-4.5,0.1-6.9c-0.1-2.9-0.8-5.6-0.9-8.7
				c-0.2-1.5,0.1-3.6-0.6-5.3c-0.3-1.7-0.8-9-1-10.8C781.2,565.8,780.8,557.8,780.8,556.6z M824.8,728.9c-0.9,1.7-1.7,3.4-2.8,5
				c-5.9,6.7-14.3,10-23.7,10.3c-9,0.3-17.9-2.6-23.3-9.6c-0.5-1.2-2.7-5.2-3.1-6.3c-2.1-4.7-2.2-9.6-2.9-14.5l-0.8-22.3
				c-0.2-4.8,0.6-12.4,1.8-17.3c0.1-0.4,1.6-6.4,2.3-8.8c3.5-13.1,18.1-17.2,30.8-17.6c0.1,0,2.1,0.2,2.4,0.3c0,0,0,0,0.1,0
				C827.5,650.3,838.4,685.1,824.8,728.9z"/>
			<path class="st1" d="M504.7,598.2c0.1,16,2.9,22.6,6.3,23c0.1,0,0.4,0,0.5,0c1.5-0.1,3.5-2.9,3.8-3.6c3.2-8.4,4.3-22.8,3.9-31.5
				c0,0,0-0.1-0.1-0.3c0.1-2.1,0.2-18.5-4.3-18.4c-0.2-0.4-0.3-0.5-0.6-0.4c-3,0.1-8,1.3-9.6,11.2c-0.4,2.1-0.5,8-0.6,8.1
				c0,0.4,0.2,4.5,0.2,6C504.6,593.2,504.7,597.3,504.7,598.2z"/>
			<path class="st1" d="M890.9,415.7c-2.2,4.1-4,8.5-6.5,12.8l-0.2,0.2c-2.4,2.3-3.5,4.3-5.9,6.6c-3.2,3.4-6.7,5.6-10,8.4v0.1v0.1
				c0,0.1,0.2,0.3,0.5,0.4c7.8,1.7,13.9,6.7,18.7,13.4c1.9-16.4,3.9-32.9,6-49.2C892.5,410.8,892.3,413.4,890.9,415.7z"/>
		</g>
		<g>
			<path class="st1" d="M881.9,513L881.9,513c2.7,0,14.9-0.8,17.5-0.9c0.2-0.2,0.2-0.2,0.4-0.5c1.7-1.5,1.7-2.7,1.6-5
				c-0.5-14.4-4.2-35.2-13.9-49C885.4,476.2,883.6,494.6,881.9,513z"/>
			<path class="st1" d="M887.7,532.6c0.3,0.1-3,0.2-7.7,0.5c-0.8,9-1.6,18-2.3,27c5.6-0.2,11.2-0.6,16.7-2h0.1
				c1.1-0.1,2.6-0.3,3.4-1.8c1.7-2.4,3-4.6,2.9-7.8c-0.2-2.7-1.3-5.4-1.3-8.1c-0.1-0.8,0.3-1.7,0.3-2.8
				C899.5,532.1,891.5,532.4,887.7,532.6z"/>
			<path class="st1" d="M876.6,598.7l0.5-0.5c1.2,0,7.7-0.6,8.9-0.6c3.3-0.4,4.3-2.2,4.8-5.4c0-0.4,0.1-2.8,0-3.4
				c-0.1-0.8-0.3-3.2-0.3-3.3c0-1-0.6-6-0.9-7.1c-0.8-2.8-3-3.8-6-3.7c-2.5,0.1-5.1,1.1-7.6,1.3c-1.6,18.1-3.1,36.3-4.8,54.5
				l35.2-2.6c2.2-4.1,0-15.5-0.8-20.6c-0.1-0.6-0.8-1.8-1.5-1.8l-27.6,1.7C876.9,606.2,876.7,599.7,876.6,598.7z"/>
			<path class="st1" d="M893.9,407.6c0-0.4,0.9-2.1,1.2-2c0.9-2.8,0.3-5.2,0.9-7.8c1.9-6.8,2.7-11,2.4-17.9c0.1-1.2,0.7-1.2,0.7-2.3
				c0-0.7-0.2-1.3-0.7-1.8c-1.7,10.8-3.2,21.7-4.7,32.5C893.7,408.2,893.7,408,893.9,407.6z"/>
			<path class="st1" d="M902.6,720.9c-5.6-8.1-12.2-15.6-17-24c0-0.1,0-0.7-0.1-0.8c0-1.1,0.1-1.2,0.9-2.6
				c1.1-2.9,21.2-35.5,22.1-43.1c-0.1-0.3,0.2-0.8-0.4-0.8c-1.5,0.1-8.3,0.3-9.8,0.4c-4.5,0.2-10.7,0.2-15.5,0.8L869.6,677l-2.5-3.6
				c-2.4,23.2-5,46.4-8.2,69.4c6.4-4,9.5-17.7,11.8-17.9h0.1c0.1,0.2,0.7,0.9,0.8,1l9.8,13c0.5,1.3,1.4,2.5,2.8,2.5l19.8-0.7
				c3.7-0.2,7-2.5,6.8-6.9C911.1,730.9,904.9,723.2,902.6,720.9z"/>
			<path class="st1" d="M485.9,683.5c0.5,0,2.1-0.2,3.9-0.3c0.8-7.9,1.7-15.8,2.5-23.7c-2.2,0.3-4,0.5-5.8,0.9
				c-1.1,0.1-4.1,0.9-4.1,2c0,0.4,0,0.7,0.4,1.3c0.1,0.3,0,0.4,0,0.7c0.1,5.3,1.6,12.5,1.1,17.1C483.9,682.7,485,683.1,485.9,683.5z
				"/>
			<path class="st1" d="M502.1,505.6l0.5,13.5c0.1,5.2,2.5,7.1,5.9,7.7c5.4-44.4,10.5-88.8,16.8-133.1c-28.1,0.6-38.1,1.6-46.7,3.3
				c-1.6,0.3-5.7,1.2-5.7,2.8c0,0.5,0,1,0.5,1.7c0,0.4,0,0.5,0,1c0,7.3,2.2,17.1,1.4,23.6c0.1,1.8,1.6,2.3,2.9,2.7
				c2-0.1,12.8-1,14.4-0.9c0.5,0,2.1,0.1,2.4,0.3c2.3,0.7,4,27.7,4.8,31.4L502.1,505.6z"/>
			<path class="st1" d="M494.6,638.7c3.7-30.9,7.8-61.8,11.5-92.6c-10,1.8-19.5,6.5-22.3,16.7c-0.7,2.3-2.1,8.4-2.3,8.8
				c-1.2,4.9-2,12.6-1.8,17.4l0.8,22.5c0.7,4.9,0.8,9.9,3,14.6c0.4,1,2.7,5.1,3.1,6.3C488.9,635,491.6,637,494.6,638.7z"/>
		</g>
	</g>
	<g>
		<path class="st1" d="M567.5,314.5c30.1,4.8,61.9,3.3,92.3,5.7c39.5,3,78.9,8.4,118.5,11.2c0.5,0,0.6-0.8,0.1-0.9
			c-37.7-7.4-76.5-10.6-114.7-13.4c-31-2.4-65-6.3-96.1-2.8C567.4,314,567.3,314.4,567.5,314.5L567.5,314.5z"/>
	</g>
	<g>
		<path class="st1" d="M783.3,332.4c2.1,1.4,5.3,1.9,7.7,0.7c0.4-0.2,0.2-0.8-0.1-0.8c-2.1-0.8-5.1-1.2-7.4-0.8
			C783.1,331.6,783,332.2,783.3,332.4L783.3,332.4z"/>
	</g>
	<g>
		<path class="st1" d="M674.6,803.6c21.9,4.6,44.7,6.1,67,8.5c24.6,2.6,49.4,5.5,74.1,4.7c0.7,0,0.8-1,0.1-1.2
			c-23-3.3-46.2-4.6-69.2-6.8c-23.8-2.3-48.1-6.4-71.8-5.9C674.2,802.9,674.2,803.5,674.6,803.6L674.6,803.6z"/>
	</g>
	<g>
		<path class="st1" d="M471.4,589.7c-4.4,15.3,0.8,38.7,12.4,49.8c0.3,0.3,1,0,0.8-0.5c-3.3-7.7-7-14.9-9.3-22.9
			c-2.5-8.7-2.6-17.5-3.4-26.3C471.8,589.5,471.4,589.4,471.4,589.7L471.4,589.7z"/>
	</g>
	<g>
		<path class="st1" d="M899.3,461.8c5.4,9.9,9,17.8,10.2,29.3c1,9.8,0.5,20,0.6,29.9c0,0.5,0.8,0.6,0.9,0.1
			c4-15.8,6.1-50.2-11.4-59.7C899.5,461.2,899.3,461.6,899.3,461.8L899.3,461.8z"/>
	</g>
</g>
<g>
	<g>
		<path class="st2" d="M942.6,848.5c-0.8-0.5-1.9-0.6-2.8-0.1c-3.8,2.1-7.3,4.7-10.6,7.4c-2,1.6-7,6.7-10.2,6.5
			c-2.9-4.7-5.6-11.3-9-16.3c10.2-3.6,19.7-9.2,27.5-16.7c30.3-28.6,23.5-77.9,17.7-114.6c-1-6.3-2.5-12.4-4.1-18.5
			c-4.8-17.7-5-25.2-18.2-2c-4.5,7.9-9.1,15.7-13.7,23.5c-9.2,15.3-10.7,20.1-12.2-2.5c-0.9-13.9-2.2-27.7-3.8-41.6
			c-3.6-31.5-6.2-32-19.2-4.1c-6.4,13.7-11.9,27.8-16.4,42.2c-6,19.3-6.8,20.3-12.3,2c-2.6-8.7-4.9-17.4-7.2-26.2
			c-4.9-18.5-8-20.3-16.5-3.7c-7,13.6-11,29-14.2,43.5c-4.2,18.8-7.9,38.5-6,57.9c3,29.7,21.9,54.2,50.7,62.6
			c8,2.4,16.4,3.3,24.7,2.9c1.6,11.7,3.8,23.1,7,34.6c2.1,7.5,3.3,14.8,4,22.6c0.2,2.2,0.7,4.2,1.5,6c-3.7,1.6-10.7,4.9-9.2,6.5
			c1.3,1.2,3.7,0.4,5.3,0.1c2.9-0.5,5.4-1.3,8.1-2.4c1.9-0.8,2.2-2.5,1.6-3.8c0.2-4.2-1.5-8.7-1.9-12.9c-0.7-7.8-3.1-15.3-4.8-22.8
			c-2-9.1-3.4-18.7-5-28.2c3.4-0.5,6.8-1.1,10.1-2c1.1,2.5,2.6,4.8,4.1,7.2c1,1.9,2,3.8,3,5.6c1.3,2.7,2.7,5.5,4.8,7.4
			c0.1,0.1,0.2,0.2,0.3,0.2c0.2,0.3,0.5,0.7,0.8,1.1c0.8,1,2.5,1.1,3.6,0.6c0.6,0.1,1.1,0,1.8-0.3c5.1-3,10.5-6.3,15.2-10.3
			c1.3-0.9,2.5-1.8,3.4-2.9c0.3,2,0.8,4.1,1.6,5.9c0.5,1.3,2.4,1.5,2.8,0c1.1-3.6,0-7.8-0.2-11.5
			C944.6,849.3,943.7,848.5,942.6,848.5z"/>
		<path class="st2" d="M962.9,743.4C962.9,743.3,962.7,743.3,962.9,743.4c2.9,15.3,2.9,31.7,0.6,47c-3.4,21.2-13.8,39.3-33.3,49.3
			c-0.2,0.1-0.1,0.4,0.2,0.3C967.5,826.5,970.3,776.2,962.9,743.4z"/>
		<path class="st2" d="M806.6,756.4c1.3-15.4,5.9-29.6,9.7-44.5c0-0.1-0.2-0.2-0.2-0.1c-6.5,12.9-9.2,28.5-10.7,42.7
			c-1.6,14.6-1.7,31.1,3.6,45c0.1,0.2,0.3,0.1,0.3-0.1C806.9,785,805.3,771.1,806.6,756.4z"/>
		<path class="st2" d="M874.5,854.1c-14.3-1.7-25.7-5.5-36.8-15c-0.1-0.1-0.2,0-0.2,0.2c8,10.9,23.8,16.5,36.9,15.2
			C874.7,854.4,874.7,854.1,874.5,854.1z"/>
		<path class="st2" d="M866.9,700.7c4.2-9.7,7.4-19.9,11.2-29.9c3.8-10.2,8-21.7,16.8-28.7c0.1-0.1,0-0.2-0.1-0.2
			c-8.3,2.7-12.9,14.5-15.9,21.9c-4.9,11.9-9,24.3-12.3,36.8C866.5,700.8,866.8,701,866.9,700.7z"/>
		<path class="st2" d="M916.7,715.1c3.4-6,6.2-12.2,9.5-18.1c3.2-5.9,7-11.3,10.5-16.9c0.1-0.1-0.1-0.2-0.2-0.2
			c-9.4,9-16.3,22.9-20.1,35.1C916.3,715.2,916.5,715.3,916.7,715.1z"/>
	</g>
	<g>
		<path class="st3" d="M874,823.3c21.8,5.4,41.7-6.8,50-23.5c11.1-22.3-2.3-45.1-23-52.9c-22.1-8.3-50.4-2.5-57.2,26.1
			C839,793.1,848.2,816.9,874,823.3z"/>
		<path class="st3" d="M947.5,780.1c0.1-0.2,0-0.5-0.2-0.6c-1.1-0.7-2.3-0.1-3.4-0.1c-1.3,0-2.5-0.6-3.8-0.6c-0.3,0-0.5,0.4-0.4,0.7
			c0.7,1.1,1.9,1.7,3.2,2c-1.9,14.2-6,27.1-16.8,37.1c-12.2,11.4-29.3,17-45.8,16.3c-14.7-0.6-28-8.3-37.8-18.9
			c-11.8-12.8-13.3-28.8-11.8-45.2c1.1,0.2,2,0.2,2.9-0.2c0.7-0.4,0.7-1.6,0-2c-1-0.5-2.2-0.5-3.4-0.8c-0.9-0.3-1.7-0.9-2.7-1.1
			c-0.3-0.1-0.7,0.2-0.6,0.5c0.1,1.2,1.1,2.4,2.5,3.1c-11.6,31.5,16.6,65.5,48.1,68.3c34.2,3.1,68.8-21,66.8-57
			C945.6,781.7,947.2,781.5,947.5,780.1z"/>
		<path class="st3" d="M939,715c1.3-0.5,3.7-1.3,3.4-3.1c0-0.1-0.2-0.2-0.2-0.2c-1.6-0.2-2.3,1.8-3.4,2.6
			C938.5,714.5,938.6,715.2,939,715z"/>
		<path class="st3" d="M941.6,717.5c1.2,0.1,2.3-0.2,3-1.4c0.3-0.5-0.3-1.1-0.8-0.8c-0.7,0.5-1.4,1.5-2.2,1.7
			C941.2,717.1,941.3,717.5,941.6,717.5z"/>
		<path class="st3" d="M839.8,720.7c0.2,0.2,0.7,0,0.6-0.3c-0.3-1.2-0.9-2.5-1.7-3.5c-0.6-0.7-2-0.3-1.6,0.7
			C837.6,718.9,838.8,719.7,839.8,720.7z"/>
		<path class="st3" d="M837.9,723.4c0.3,0.1,0.7-0.3,0.3-0.6c-0.1-0.1-0.2-0.2-0.2-0.2c0-0.3-0.1-0.7,0-1c0.1-0.7-0.4-1.1-0.9-1.4
			c-0.1-0.1-0.2-0.1-0.3,0c-0.8,0.6-1,1.2-0.5,2.1C836.5,723,837.1,723.2,837.9,723.4z"/>
		<path class="st3" d="M888.6,701c0.7-1.1,1.1-2.5,1.5-3.8c0.2-1.1,0.7-2.4-0.3-3.1c-0.2-0.1-0.4-0.1-0.5,0
			c-0.9,0.6-0.7,1.5-0.7,2.4c0,1.5-0.3,2.9-0.2,4.4C888.3,701.1,888.5,701.2,888.6,701z"/>
		<path class="st3" d="M892.3,701.6c0.2-0.1,0.2-0.1,0.4-0.2s0.2-0.3,0.4-0.4c0.3-0.3,0.5-0.9,0.7-1.3c0.3-0.9,0.7-2.2-0.3-2.8
			c-0.7-0.3-1.1,0.8-1.2,1.2c-0.1,0.7-0.1,1.2-0.2,1.9c0,0.2,0.1,1.1-0.1,1.3C891.9,701.6,892.1,701.8,892.3,701.6z"/>
	</g>
	<path class="st2" d="M885.4,777.9c-2.5,0.2-4.5,1.9-5.4,4.2c-0.2,0.5-0.2,1.1-0.2,1.6c-0.1,0.3-0.2,0.7-0.2,1
		c-0.2,2.5,1.6,4.1,3.6,4.9c1.7,0.7,3.8,0.7,5.5-0.3c1.6-1.1,2.4-2.8,2.5-4.7C891.4,781.5,888.9,777.6,885.4,777.9z"/>
</g>
<g>
	<path class="st1" d="M327.6,378.9c-0.1-0.1,0.1-0.4,0.3-0.4c5.7-0.5,10.8,2.7,14.6,6.6c3.7,3.7,6.6,4.8,12,3.2c2.2-0.6,5-2,7.2-0.9
		c1.9,1,3.3,2,4.7,3.8c3.7,5.1,6.6,6.6,13.1,5.1c4.6-1.1,7.6,0.1,10.3,3.1c2.4,2.5,0.1,2.7-1.4,2.4c-5.5-0.8-10.2,1.7-16,1.4
		c-4.1-0.1-7-4.4-9.9-6.6c-3.7-2.8-8.3,0.1-11.8,1c-2.2,0.5-4.2,0-6.2-0.8c-1.9-0.8-3.7-2.2-5.3-3.2c-4.3-2.8-8-2.5-12.6-0.9
		c-0.1,0.1-0.4,0.4-0.5,0.3c0,0-0.1,0-0.1-0.1c-0.4,0.1-0.8-0.1-0.9-0.5C321.1,389.6,322.5,379.7,327.6,378.9z"/>
	<g>
		<path class="st2" d="M241.4,408.9c0.6-1.5,2.9-1.7,3.9-0.5c1.8,1.8,3.2,3.6,4.8,5.6c1.1,1.7,2.3,3.2,3.7,4.7
			c2.5,2.9,3.7,3.2,6.5,0.6c1.7-1.5,4.1-3.9,6.6-5.7c-0.4-0.6-0.6-1.3-1-2c-12.6-27.2-16.4-61.1,0.4-96.2
			c7.6-16.1,18.8-35.7,42.2-46.4c0-1.4,0-3.1,0-4.4c0.3-11.4,1.1-23,1.3-34.5c0-1.7,1-2.9,2.5-3.4c13.2-4.1,25.9-11.2,39.3-15.4
			c1.7-1,3.6-1.8,5.2-2.8c4.6-3.1,12.6-11.1,12.6-16.8c0-1,0.9-1.9,1.9-1.9c5,0,9.8,1.4,14.6-0.1c0.1-0.1,0.4,0.1,0.4,0.4
			c-1.4,4.3-8.5,3.8-13.1,3.7c-0.4,4.6-3.2,8.8-6.1,12.5c2.3-1,4.4-2.2,6.6-3.3c4.8-2.7,12.6,1.5,17.5,1.9c0.1,0,0.4,0.3,0.1,0.4
			c-4.7,4.8-12.2-1.7-17.7,1.9c-2.8,1.9-6.7,4.6-10.9,6.4c0.5,0.4,1,0.9,1.7,1.3c1.4,1.1,2.8,1.9,4.6,2.3c1.5,0.4,3.2,0.4,4.7,1
			c0.1,0.1,0.1,0.3,0.1,0.4c-3.2,5-10.6,1-14.9-2.4c-4.7,2.4-10.3,3.9-14.6,5.8c-6.2,2.8-12.6,5.6-18.9,8c-1.9,0.8-3.7,1.7-5.6,2.5
			c-1.7,0.8-2.5,1.9-2.9,3.1c0,1.5-0.1,3.1-0.1,4.6c0.1,1,0.3,2.2,0.4,3.2c0.1,4.7,0.1,9.4,0.3,14.1c0,2.5,0.4,5.3,0.6,8.3
			c8.5-2.7,18.3-4.3,29.7-4.4c22.9-0.4,45.3,11.1,62,25.8c5.5,4.8,10.6,9.9,15,15.1c0.3-0.1,0.5-0.3,0.8-0.4
			c2.3-1.3,4.4-2.7,5.8-4.6c3.7-5,1.9-16.8,2.2-22.6c0.1-3.8,0.3-8.1,1.3-11.8c-0.3-0.8-0.5-1.4-1-2c-1.1-1.4-2.8-2.3-3.9-3.8
			c-2.4-3.1-1.7-6.9-0.1-10c0.3-0.4,0.9-0.4,1.1,0c1,1.9,1,3.9,1.4,6.1c0.4,2,2.9,3.6,4.3,5c0.1,0.1,0.3,0.3,0.4,0.4
			c0.3-0.4,0.5-0.8,1-1.3c1.9-5.5,6.9-10.8,9.4-15.5c-2.9-2-5.5-4.8-4.8-8.5c0.1-0.4,0.5-0.5,0.8-0.3c2.3,2.3,3.8,4.8,7.2,6.2
			c1.3,0.5,1.8,1.7,1.3,2.9c-1.8,4.1-4.1,7.9-6.5,11.7c-0.9,1.4-1.4,2.8-1.9,4.3c2.3-2,5-3.3,7.9-4.7c2.8-1.4,1.4-7.8,3.2-10.6
			c0.3-0.4,0.8-0.4,0.9,0.1c1,4.4,1.8,10.4-2.4,13.2c-3.8,2.5-7.1,5.5-9.9,9.2c-0.1,0.1-0.1,0.4-0.3,0.4c0,0.1,0,0.1,0,0.1
			c0.5,6,0.4,12.2,0,18.1c-0.4,5.2,1.1,14.7-2.9,18.8c-2.5,2.7-6,4.3-9.4,5.8c1.8,2.3,3.4,4.8,5,7.1c3.6,5.5,6.4,11.1,8.3,16.5
			c14.4,42-12.1,63.1-37,60c-25-3.1-33.7-15.5-42.1-20.2c-4.6-2.5-9.7-3.2-13-2.8c-25.3,2.9-29.4,29.7-14.4,44.1
			c7.1,6.9,19.2,9.2,29,7.2c4.4-0.8,9-1.9,13.1-2.4c16.8-2.3,28.7,19.8,16.5,34.3c-13.1,15.5-38.5,14.6-48.8,14.5
			c-1,0-2.2-0.1-3.2-0.1c2.2,3.2,3.9,6.6,5.6,9.7c0.5,1,0.5,2.3-0.4,3.2c-2.9,2.4-6.4,6.9-9.9,9.7c2.4,0.5,4.7,1.3,6.6,2.5
			c0.6,0.5,0.5,1.3-0.3,1.7c-4.6,1.9-10.3,0-15.1-0.3c-2.4-0.1-3.4-2.8-1.9-4.6c1.3-1.4,2.5-2.5,3.8-3.9c0,0,0.1,0,0.1-0.1
			c1.7-2.8,3.9-5.2,6.4-7.6c-2.2-3.9-4.1-8-6.1-11.9c-23-5.2-47.3-21-61.8-44.9c-2.9,4.1-7.9,7.6-11.4,10.2c-1,0.8-2.7,0.4-3.6-0.5
			c-3.8-3.6-7.2-7.4-10.6-11.3c-0.5-0.6-1.1-1.3-1.7-1.9c-1.3,2.5-2.8,5-5.2,6.6c-0.4,0.3-0.8-0.1-0.8-0.4
			C237.3,418,239.5,413.2,241.4,408.9z"/>
		<path class="st2" d="M250.8,375.2c1,11.7,4.6,22.6,9.2,33.3c0.1,0.3-0.1,0.4-0.4,0.1c-5.8-9.7-8.5-21.1-9.9-32.3
			c-1.5-13.9-0.8-30.1,4.6-43.2c0-0.1,0.1,0,0.1,0c-1.3,7.6-3.1,14.9-3.8,22.6C250,362.3,250.2,368.8,250.8,375.2z"/>
		<path class="st2" d="M453.3,361c1.7-8.1,0.4-15.4-1.9-23.3c0-0.1,0.1-0.1,0.1-0.1c4.6,6,4.3,15.6,3.2,22.6
			c-1.1,7.5-4.7,17.2-11.7,21.1c-0.1,0.1-0.4-0.1-0.3-0.3C448,375,451.7,369,453.3,361z"/>
		<path class="st2" d="M370.9,259.4c-6.6-1.4-13-2.5-19.8-2.7c-6.4-0.1-12.7,1.1-19.1,1.9c-0.1,0-0.1-0.3,0-0.4
			c11.6-4.7,27.6-4.4,38.9,0.8C371.1,259.3,371.1,259.4,370.9,259.4z"/>
		<path class="st2" d="M344,252.6c-0.1,0-0.3-0.3-0.1-0.4c3.3-1.1,7.6-1.5,10.8,0.1c0.1,0.1,0.1,0.1-0.1,0.1
			C351.1,252.2,347.5,252.9,344,252.6z"/>
		<path class="st2" d="M366.5,471c3.2-0.1,6.5-0.8,9.7-1.7c6.2-1.7,12.1-4.3,16.8-8.8c0.1-0.1,0.1,0,0.1,0.1
			c-3.1,5-9.4,7.5-14.6,9.3c-5,1.7-13.6,4.1-18.6,1.7c-0.1-0.1-0.1-0.4,0.1-0.4C361.9,470.8,364.2,471.1,366.5,471z"/>
		<path class="st2" d="M371.4,473.4c3.7-0.4,7.1-1.4,10.8-2.2c0.1,0,0.1,0.1,0.1,0.1c-3.1,2.2-7.2,2.8-10.8,2.5
			C370.9,473.9,370.9,473.5,371.4,473.4z"/>
	</g>
	<g>
		<path class="st3" d="M394.2,365.7c4.3,6.5,9.8,8.8,17,10.9c0.1,0,0.1,0.1,0,0.1c-7,0.1-14.9-4.3-17.3-11.1
			C393.8,365.7,394.1,365.7,394.2,365.7z"/>
		<path class="st3" d="M401.6,370.7c9,5.2,25,7.2,32-2.4c0.1-0.1-0.1-0.1-0.1-0.1c-3.9,2.4-8.4,4.1-12.8,4.8
			c3.9-1.4,7.5-3.7,10.3-6.9c7.5-8.4,9.8-21.9-0.3-32c-10.7-10.8-24.7-7.8-32.8,0.8c-0.3,0.4-0.5,0.6-0.9,1
			c5.3-9.2,13.1-12,23.5-12.8c0.1,0,0.1-0.3,0-0.4c-14-4.1-24.7,7.4-28,20.2c-1.8,4.4-2,9.4-0.4,14.4c0.5,2,1.3,3.9,2.3,5.7
			C396.1,366.1,398.4,368.8,401.6,370.7z M411.7,338.2c2.4-2,5.5-1.3,6.9,1c1.3,2,1.1,5.2-1.1,7c-2.4,1.8-5.8,0.8-7.1-1.4
			C409.2,342.7,409.8,339.8,411.7,338.2z"/>
		<path class="st3" d="M389.2,343.2c-0.8,7.5,1,13.6,3.3,20.6c0.1,0.1-0.1,0.3-0.3,0.1c-3.6-5.5-5.6-14.5-3.3-20.6
			C389.1,343.1,389.2,343.1,389.2,343.2z"/>
		<path class="st3" d="M413.8,376.9c0.5,0,1.1-0.1,1.7,0.1c0.1,0,0.1,0.1,0,0.1c-0.8,0.5-2.3,0.8-3.1,0.1c-0.1-0.1,0-0.1,0-0.1
			C413,376.8,413.4,376.9,413.8,376.9z"/>
		<path class="st3" d="M333.3,458.6c0.1,0.8,0.3,1.9-0.3,2.5c-0.1,0.1-0.5,0.1-0.5,0c-0.8-0.8-0.1-2,0.4-2.8
			C332.9,458.1,333.3,458.3,333.3,458.6z"/>
		<path class="st3" d="M335,459.8c0.1-0.4,0.4-0.6,0.5-0.9c0.1-0.1,0.3-0.1,0.4,0c0.1,0.3,0.1,0.6,0.1,1c0,0.5-0.1,1.1-0.4,1.5
			c-0.1,0.3-0.3,0.4-0.5,0.4c-0.1,0-0.3-0.1-0.4-0.1c-0.1-0.1-0.1-0.4-0.1-0.5C334.7,460.7,334.8,460.2,335,459.8z"/>
		<path class="st3" d="M335,354.3c11.2,4.8,27.6,7.2,37.9-1.1c0.1-0.1,0-0.1-0.1-0.1c-7.2,2.5-14.4,3.9-21.5,3.7
			c1.8,0,3.6-0.3,5.2-0.8c7.5-1.3,14.5-4.8,20.3-9.9c4.6-3.7,8.1-8.1,10.4-12.6c0.5-1.1,1-2.2,1.4-3.3c1.8-3.9,3.1-8.3,3.7-12.6
			c2.4-14,0.4-29.2-9.9-39.3c-0.3-0.3-0.8,0.1-0.5,0.4c4.6,6.6,7.5,14,8.8,21.7c-1.9-5.6-5.2-11.1-10-16
			c-19.3-19.6-44.5-13.9-59.2,1.5c-5.8,6.2-10,14-11.6,22.4c0.1-13.2,6.1-25.3,18.4-33.7c0.3-0.1,0-0.5-0.3-0.4
			c-18.3,8.3-23.8,30.3-18.4,48.4C311.2,336.6,322.2,348.8,335,354.3z M373.9,310.9c2.4-2,5.5-1.3,6.9,1c1.3,2,1.1,5.2-1.1,7
			c-2.4,1.8-5.8,0.8-7.1-1.4C371.2,315.4,371.9,312.4,373.9,310.9z"/>
		<path class="st3" d="M380.2,276.6c-0.5-0.4-1.1-0.9-1.5-1.4c-0.5-0.5-1.1-0.9-1.5-1.5c-0.1-0.3,0.1-0.6,0.5-0.5
			c1.3,0.4,2.8,1.8,3.3,3.1C380.8,276.3,380.5,276.6,380.2,276.6z"/>
		<path class="st3" d="M425.5,324.9c-0.9-0.3-1.8-0.5-2.7-0.8c-0.4-0.1-1.4-0.5-1.1-1c0.4-0.8,1.4-0.4,2-0.1c0.9,0.4,1.5,0.8,2,1.7
			C425.7,324.8,425.6,325,425.5,324.9z"/>
		<path class="st3" d="M292.6,414.9c0.5-0.3,1-0.3,1.5,0c0.1,0.1,0.3,0.4,0.1,0.5c-0.5,0.1-0.8,0.4-1.1,0.5
			c-0.1,0.1-0.4,0.1-0.5,0.3s-0.4,0-0.5,0c-0.3,0.1-0.4-0.3-0.3-0.4s0.1-0.4,0.3-0.5C292,415,292.4,414.9,292.6,414.9z"/>
		<path class="st3" d="M331.3,272.4c-0.1,0.1-0.4-0.1-0.1-0.3c6.7-5.6,18.3-7.2,26.3-4.2c0.1,0,0.1,0.1,0,0.1
			C347.9,266.8,340,268.3,331.3,272.4z"/>
		<path class="st3" d="M291.9,413.2c-0.1-0.1-0.3-0.4-0.1-0.5c0.6-0.5,1.8-0.5,2.4-0.8c0.1-0.1,0.5,0.1,0.3,0.3
			C294,413,292.7,413.9,291.9,413.2z"/>
		<path class="st3" d="M398,320.3c1.4-6.2,2.4-12,2.4-18.4c0-0.1,0.1-0.1,0.1,0c1.4,5.8,0.1,13.1-2.3,18.6
			C398.1,320.4,398,320.3,398,320.3z"/>
		<path class="st3" d="M325.9,352.9c0.9,0,1.8,0.8,2.5,1.1c0.1,0,0.1,0.1,0,0.1c-0.9,0.1-2.2-0.1-2.7-1.1
			C325.8,353.1,325.9,352.9,325.9,352.9z"/>
		<path class="st3" d="M388.6,334.7c4.1-7.4,7.2-14.9,8.3-23.1c1.1-8.1-0.6-15.5-2.9-23.1c0-0.1,0.1-0.1,0.1-0.1
			c8.1,13.3,4.2,34.8-5.2,46.5C388.7,335.1,388.6,334.9,388.6,334.7z"/>
		<path class="st3" d="M441.7,346c-0.5-7.5-4.4-13-9.4-18.1c-0.1-0.1,0-0.3,0.1-0.1c12.6,7.2,14,28.5,3.4,38c-0.1,0.1-0.3,0-0.1-0.1
			C439.6,359.3,442.1,353.5,441.7,346z"/>
		<path class="st3" d="M270.6,404.9c-0.1-0.1-0.1-0.1,0-0.3c0.4-0.8,1.3-0.8,2-0.9s1.4-0.1,2.2-0.3c0.1,0,0.1,0.1,0.1,0.3
			c-0.6,0.5-1.3,0.8-2,1.1C272.2,405,271.3,405.2,270.6,404.9z"/>
		<path class="st3" d="M284.6,279.5c0.3-0.3,0.8-0.4,1-0.5c0.4-0.1,0.6,0.1,0.5,0.5c-0.1,0.3-0.1,0.6-0.4,1c-0.1,0.4-0.5,0.6-0.8,1
			c-0.5,0.5-0.9,1-1.8,1c-0.1,0-0.4-0.1-0.3-0.4c0.3-0.6,0.6-1.1,1.1-1.8C284.1,280,284.4,279.8,284.6,279.5z"/>
		<path class="st3" d="M277.6,428.6c0.5-0.3,0.9-0.5,1.4-0.8c0.5-0.1,1.1-0.4,1.4-0.5c0.1,0,0.1,0,0.1,0.1c-0.6,0.9-1.4,1.8-2.7,2.2
			C277.4,429.9,277,428.9,277.6,428.6z"/>
		<path class="st3" d="M270,346.3c-0.8-0.1-0.5-1.4,0.4-1.1c1,0.3,2,0.5,3.1,1c0.1,0.1,0.1,0.1,0,0.1
			C272.3,346.6,271,346.5,270,346.3z"/>
		<path class="st3" d="M276.9,425.5c0.5-0.3,1.1-0.4,1.8-0.6c0.3-0.1,0.6,0.1,0.4,0.5c-0.5,0.5-0.8,1-1.4,1.4
			c-0.5,0.4-1.1,0.4-1.8,0.1c-0.1-0.1-0.1-0.1-0.1-0.3C276.1,426,276.3,425.7,276.9,425.5z"/>
		<path class="st3" d="M320.7,435.8c0.1,1.1-0.1,2.8-0.6,3.9c-0.1,0.4-0.8,0.1-0.8-0.1c0.1-1.1,0.5-2.8,1.1-3.8
			C320.6,435.6,320.7,435.6,320.7,435.8z"/>
		<path class="st3" d="M256.9,330.9c4.4-16.3,12.1-35,24.9-46.4c0.1-0.1,0.4,0.1,0.3,0.1c-10,13.6-17.4,28.1-22.4,44.2
			c-5.6,18.2-5.7,35.3-3.6,54.2c0,0.3-0.5,0.5-0.5,0.1C248.4,367.6,252.6,346.9,256.9,330.9z"/>
		<path class="st3" d="M271.6,348c0.1,0,0.1,0.1,0,0.1c-1.1,0.5-2.4,0.5-3.1-0.5c-0.1-0.1,0-0.3,0.1-0.3
			C269.7,347,270.6,347.5,271.6,348z"/>
		<path class="st3" d="M270.5,406.4c0.8-0.3,1.5-0.1,2.3,0.1c0.1,0,0.1,0.1,0,0.1c-0.5,0.3-2.8,1.7-3.2,0.5
			C269.5,406.9,270.1,406.5,270.5,406.4z"/>
		<path class="st3" d="M293.8,446.8c0.5-0.8,1.1-1.1,1.9-1.8c0.1-0.1,0.5,0.1,0.4,0.4c-1,1.4-1.8,2.9-2.7,4.3
			c-0.5,0.6-1.4,0.1-1.1-0.6C292.6,448.3,293.3,447.6,293.8,446.8z"/>
		<path class="st3" d="M301,315.1c0,8.6,1,16.5,6.4,23.6c0.1,0.1-0.1,0.1-0.1,0.1C301.1,333.3,299.5,322.9,301,315.1
			C300.9,315,301,315,301,315.1z"/>
		<path class="st3" d="M318.6,435.6c-0.4,0.8-0.5,1.8-0.9,2.7c-0.1,0.5-1.1,0.4-0.9-0.3c0.3-1,0.8-1.8,1.4-2.7
			C318.3,435.2,318.6,435.4,318.6,435.6z"/>
		<path class="st3" d="M304.8,304.8C304.8,304.7,304.8,304.8,304.8,304.8c-2.5,19.3,4.1,36.1,20,47.5c0.1,0.1,0,0.4-0.1,0.3
			C307.6,345,299.1,322,304.8,304.8z"/>
		<path class="st3" d="M286.4,377.7c1-0.8,3.3-0.3,4.3,0.4c0.1,0.1,0.1,0.3,0,0.3c-0.8,0.1-1.4,0.1-2.2,0.1s-1.4,0.1-2-0.4
			C286.3,377.9,286.3,377.8,286.4,377.7z"/>
		<path class="st3" d="M292,444.9c0.1-0.1,0.4,0.1,0.3,0.3c-0.5,0.8-0.8,1.8-1.8,2c-0.4,0.1-0.8-0.3-0.6-0.6
			C290.1,445.7,291.1,445.3,292,444.9z"/>
		<path class="st3" d="M285.9,379.8c0.5,0.1,0.9,0.1,1.4,0.4c0.3,0.1,0.3,0.4,0,0.5c-0.5,0.3-1.1,0.3-1.8,0.3
			c-0.5-0.1-0.8-0.3-1.1-0.6c-0.1-0.1-0.1-0.4,0.1-0.4C285,379.8,285.2,379.7,285.9,379.8z"/>
	</g>
	<path class="st1" d="M401.2,205.9c5.8-5.1,17.2-0.1,17.3,10.2c9.8-7,22.4,2.4,14.4,15.9c-7.5,12.5-24.3,12.6-27,12.6
		c-3.9,0.1-4.3,0.1-6.1-3.3C396.7,235,389.9,215.8,401.2,205.9z M444,224.7c-0.1,0.4-0.1,0.5,0,0.8c0.1,0.5,0.5,1,1,1
		c1.9,0.4,4.8,0.4,6.5-1c0.3-0.3,0.3-0.8,0-1c-1.7-1.3-4.6-1.3-6.5-1C444.5,223.7,444.2,224.2,444,224.7z M439.8,216.6
		c1.1,0.1,2.5-0.5,3.4-1c0.8-0.4,1.8-0.8,2.2-1.7c0.1-0.4,0.1-0.8-0.3-1c-0.8-0.5-2.2-0.1-3.1-0.1c-1,0.1-2.2,0.4-3.2,0.8
		C437.5,214.3,438.4,216.5,439.8,216.6z M431.4,209.2c1.7-1.5,3.1-3.8,3.6-6c0.1-0.5-0.4-1-0.9-0.8c-1.9,1.1-3.3,3.1-4.7,4.7
		C428.4,208.7,430.2,210.5,431.4,209.2z M422.2,199.2c0.4-1,0.8-2,0.5-3.2c-0.1-0.5-0.8-0.5-1-0.3c-0.8,0.8-1.4,1.8-2,2.8
		s-1.5,1.8-1.3,3.1c0.1,0.6,0.8,0.8,1.3,0.8C421,202.1,421.8,200.2,422.2,199.2z M409.6,198.4c0.5-1.5,1-4.1,0.4-5.5
		c-0.3-0.6-1.3-1-1.7-0.3c-0.4,1-0.5,1.9-0.8,2.9c-0.1,0.8-0.4,1.7-0.4,2.4C407,199.7,409.2,199.7,409.6,198.4z M399.9,199.4
		c0.5-0.8,0-1.8-0.3-2.5c-0.4-1.7-0.4-3.8-1.3-5.1c-0.3-0.4-0.6-0.4-0.9,0c-1,1.4-1,3.7-0.8,5.5c0.3,1.5,0.5,2.9,2.3,3.1
		C399.4,200.2,399.8,199.7,399.9,199.4z M416.3,248.4c-0.8,2-0.6,4.1-0.8,6.2c0,1.9,3.1,1.9,2.9,0c-0.1-2.2,0.1-4.3-0.8-6.2
		C417.6,247.6,416.7,247.6,416.3,248.4z M405.3,252.4c-0.1,1.3-0.5,3.7,1.4,3.7c1.7,0,1.4-1.9,1.4-3.1c0.1-1.3,0.5-2.9-0.4-3.9
		c-0.1-0.1-0.3-0.1-0.4-0.1C405.9,249.3,405.4,251,405.3,252.4z M392.4,249.4c-1.3,1.7,1.7,3.4,2.8,1.7c0.5-0.8,1-1.4,1.4-2.2
		c0.4-0.5,0.8-1.4,0.8-2.2c0-0.1,0-0.1,0.1-0.3c0.1-0.5-0.4-1-0.9-0.9c-0.1,0-0.1,0.1-0.1,0.1l0,0c-0.4,0-0.5,0.1-0.8,0.3
		c-0.5,0.4-1,0.6-1.4,1.1C393.6,247.7,392.9,248.6,392.4,249.4z M386.3,241.6c1.9-0.1,4.4-0.4,5.8-1.9c0.3-0.4,0.3-0.9-0.1-1
		c-1.8-0.8-3.8-0.4-5.7-0.4C384.2,238.4,384.3,241.9,386.3,241.6z M382.1,230.6c0.9,1.1,2.9,1,4.2,0.6c1-0.3,2.2-0.4,2.8-1.3
		c0.1-0.1,0.1-0.4,0-0.5c-0.6-0.9-2.2-1.3-3.2-1.4c-1.3-0.1-2.8-0.4-3.8,0.8C381.6,229.4,381.6,229.9,382.1,230.6z M388.3,216.3
		c-0.5-0.6-1.4-1.1-2.2-1.4c-0.8-0.3-1.9-0.6-2.7-0.4c-1,0.4-1.5,1.7-0.6,2.5c0.6,0.8,1.8,0.8,2.8,1c0.8,0.1,1.7,0.1,2.4-0.1
		C388.5,217.6,388.7,216.7,388.3,216.3z M434.1,238.7c-0.8,1.4,0.5,2.8,1.7,3.6c1.1,1,2.3,1.4,3.8,1.4c0.4,0,0.5-0.4,0.4-0.5
		c-0.5-1.5-1.3-2.5-2.4-3.6c-0.6-0.5-1.4-1.3-2.3-1.3C434.9,238.2,434.2,238.3,434.1,238.7z"/>
	<path class="st3" d="M421.5,233.9c3.7-2.3,5.6-5.6,8.5-8.6c0.1-0.1,0.4,0,0.4,0.1c-0.5,8.8-10.7,15.5-18.7,15.3
		c-0.1,0-0.4-0.3-0.1-0.5C414.5,237.3,418.1,235.9,421.5,233.9z M406.5,242.1c1.1,0.5,2.5,0.1,3.3-0.8c0.3-0.4,0.1-0.8-0.4-0.9
		c-0.9,0-2.2,0-2.9,0.5C406,241.1,405.9,241.9,406.5,242.1z"/>
</g>
</svg>
